HIERARCHY
ROOT hips
{
  OFFSET 0 9.313263304106702 1.2146308026317778
  CHANNELS 6 Xposition Yposition Zposition Yrotation Xrotation Zrotation
  JOINT spine
  {
    OFFSET -6.402521e-31 0.5173342420023708 0
    CHANNELS 3 Yrotation Xrotation Zrotation
    JOINT chest
    {
      OFFSET 0 1.130544299341115 0
      CHANNELS 3 Yrotation Xrotation Zrotation
      JOINT upperChest
      {
        OFFSET 0 1.0863555061129995 0
        CHANNELS 3 Yrotation Xrotation Zrotation
        JOINT neck
        {
          OFFSET 0 1.3773706506454462 0
          CHANNELS 3 Yrotation Xrotation Zrotation
          JOINT head
          {
            OFFSET 0 0.7374408940073979 0
            CHANNELS 3 Yrotation Xrotation Zrotation
            JOINT leftEye
            {
              OFFSET 0.25066580148932727 0.6408406698778757 0.15963719178883284
              CHANNELS 3 Yrotation Xrotation Zrotation
              End Site
              {
                OFFSET 0.25066580148932727 0.6408406698778757 0.15963719178883284
              }
            }
            JOINT rightEye
            {
              OFFSET -0.25066576739704244 0.6408406384191823 0.15963727561643756
              CHANNELS 3 Yrotation Xrotation Zrotation
              End Site
              {
                OFFSET -0.25066576739704244 0.6408406384191823 0.15963727561643756
              }
            }
          }
        }
        JOINT leftShoulder
        {
          OFFSET 0.3761817444281191 1.0539491987447769 0
          CHANNELS 3 Yrotation Xrotation Zrotation
          JOINT leftUpperArm
          {
            OFFSET 0.8702844380000002 0 0
            CHANNELS 3 Yrotation Xrotation Zrotation
            JOINT leftLowerArm
            {
              OFFSET 2.198527310000323 0 0
              CHANNELS 3 Yrotation Xrotation Zrotation
              JOINT leftHand
              {
                OFFSET 2.146852313968281 0 0
                CHANNELS 3 Yrotation Xrotation Zrotation
                JOINT leftIndexProximal
                {
                  OFFSET 0.6585177834681599 0.07380250427007962 0.18382213159631788
                  CHANNELS 3 Yrotation Xrotation Zrotation
                  JOINT leftIndexIntermediate
                  {
                    OFFSET 0.3323021288626682 -0.009606893929485771 -0.012820872253340998
                    CHANNELS 3 Yrotation Xrotation Zrotation
                    JOINT leftIndexDistal
                    {
                      OFFSET 0.2045908926985518 -0.0071133989147997845 -0.006828784783599051
                      CHANNELS 3 Yrotation Xrotation Zrotation
                      End Site
                      {
                        OFFSET 0.2045908926985518 -0.0071133989147997845 -0.006828784783599051
                      }
                    }
                  }
                }
                JOINT leftLittleProximal
                {
                  OFFSET 0.6110054258835662 0.07380246363125398 -0.29175655876064077
                  CHANNELS 3 Yrotation Xrotation Zrotation
                  JOINT leftLittleIntermediate
                  {
                    OFFSET 0.3144281999999998 -2.5124724523095665e-9 1.8658118799974588e-7
                    CHANNELS 3 Yrotation Xrotation Zrotation
                    JOINT leftLittleDistal
                    {
                      OFFSET 0.18116185580251631 0.002815456192251098 0.0034826415518049436
                      CHANNELS 3 Yrotation Xrotation Zrotation
                      End Site
                      {
                        OFFSET 0.18116185580251631 0.002815456192251098 0.0034826415518049436
                      }
                    }
                  }
                }
                JOINT leftMiddleProximal
                {
                  OFFSET 0.6637478005691111 0.07380246480054087 0.02046981859247815
                  CHANNELS 3 Yrotation Xrotation Zrotation
                  JOINT leftMiddleIntermediate
                  {
                    OFFSET 0.3705733999999994 -2.9611069152224445e-9 9.35054791928458e-8
                    CHANNELS 3 Yrotation Xrotation Zrotation
                    JOINT leftMiddleDistal
                    {
                      OFFSET 0.22861063500000056 -1.82673876025774e-9 -1.6740782024515788e-7
                      CHANNELS 3 Yrotation Xrotation Zrotation
                      End Site
                      {
                        OFFSET 0.22861063500000056 -1.82673876025774e-9 -1.6740782024515788e-7
                      }
                    }
                  }
                }
                JOINT leftRingProximal
                {
                  OFFSET 0.6561845547265777 0.07380246406440083 -0.13588087571513918
                  CHANNELS 3 Yrotation Xrotation Zrotation
                  JOINT leftRingIntermediate
                  {
                    OFFSET 0.3437531000000005 -2.746796123886952e-9 1.4935781944558357e-7
                    CHANNELS 3 Yrotation Xrotation Zrotation
                    JOINT leftRingDistal
                    {
                      OFFSET 0.1983118991198174 -0.002467117924596085 -0.004538141969590015
                      CHANNELS 3 Yrotation Xrotation Zrotation
                      End Site
                      {
                        OFFSET 0.1983118991198174 -0.002467117924596085 -0.004538141969590015
                      }
                    }
                  }
                }
                JOINT leftThumbProximal
                {
                  OFFSET 0.09767004258864787 -0.14930060425447422 -0.07008212897521154
                  CHANNELS 3 Yrotation Xrotation Zrotation
                  JOINT leftThumbIntermediate
                  {
                    OFFSET 0.36682123028154767 -0.015768465060082004 0.28693641268151077
                    CHANNELS 3 Yrotation Xrotation Zrotation
                    JOINT leftThumbDistal
                    {
                      OFFSET 0.21091084272403915 -0.016756648201192714 0.1933767059105508
                      CHANNELS 3 Yrotation Xrotation Zrotation
                      End Site
                      {
                        OFFSET 0.21091084272403915 -0.016756648201192714 0.1933767059105508
                      }
                    }
                  }
                }
              }
            }
          }
        }
        JOINT rightShoulder
        {
          OFFSET -0.37618174442811925 1.0539491987447769 0
          CHANNELS 3 Yrotation Xrotation Zrotation
          JOINT rightUpperArm
          {
            OFFSET -0.870284438 0 0
            CHANNELS 3 Yrotation Xrotation Zrotation
            JOINT rightLowerArm
            {
              OFFSET -2.1985273100003235 0 0
              CHANNELS 3 Yrotation Xrotation Zrotation
              JOINT rightHand
              {
                OFFSET -2.1468523139682802 0 0
                CHANNELS 3 Yrotation Xrotation Zrotation
                JOINT rightIndexProximal
                {
                  OFFSET -0.6585177834681599 0.07380250427007962 0.18382213159631788
                  CHANNELS 3 Yrotation Xrotation Zrotation
                  JOINT rightIndexIntermediate
                  {
                    OFFSET -0.3323021288626682 -0.009606893929485771 -0.012820872253340998
                    CHANNELS 3 Yrotation Xrotation Zrotation
                    JOINT rightIndexDistal
                    {
                      OFFSET -0.2045908926985518 -0.0071133989147997845 -0.006828784783599051
                      CHANNELS 3 Yrotation Xrotation Zrotation
                      End Site
                      {
                        OFFSET -0.2045908926985518 -0.0071133989147997845 -0.006828784783599051
                      }
                    }
                  }
                }
                JOINT rightLittleProximal
                {
                  OFFSET -0.6110054258835662 0.07380246363125398 -0.29175655876064077
                  CHANNELS 3 Yrotation Xrotation Zrotation
                  JOINT rightLittleIntermediate
                  {
                    OFFSET -0.3144281999999998 -2.5124724523095665e-9 1.8658118799974588e-7
                    CHANNELS 3 Yrotation Xrotation Zrotation
                    JOINT rightLittleDistal
                    {
                      OFFSET -0.18116185580251631 0.002815456192251098 0.0034826415518049436
                      CHANNELS 3 Yrotation Xrotation Zrotation
                      End Site
                      {
                        OFFSET -0.18116185580251631 0.002815456192251098 0.0034826415518049436
                      }
                    }
                  }
                }
                JOINT rightMiddleProximal
                {
                  OFFSET -0.6637478005691111 0.07380246480054087 0.02046981859247815
                  CHANNELS 3 Yrotation Xrotation Zrotation
                  JOINT rightMiddleIntermediate
                  {
                    OFFSET -0.3705733999999994 -2.9611069152224445e-9 9.35054791928458e-8
                    CHANNELS 3 Yrotation Xrotation Zrotation
                    JOINT rightMiddleDistal
                    {
                      OFFSET -0.22861063500000056 -1.82673876025774e-9 -1.6740782024515788e-7
                      CHANNELS 3 Yrotation Xrotation Zrotation
                      End Site
                      {
                        OFFSET -0.22861063500000056 -1.82673876025774e-9 -1.6740782024515788e-7
                      }
                    }
                  }
                }
                JOINT rightRingProximal
                {
                  OFFSET -0.6561845547265777 0.07380246406440083 -0.13588087571513918
                  CHANNELS 3 Yrotation Xrotation Zrotation
                  JOINT rightRingIntermediate
                  {
                    OFFSET -0.3437531000000005 -2.746796123886952e-9 1.4935781944558357e-7
                    CHANNELS 3 Yrotation Xrotation Zrotation
                    JOINT rightRingDistal
                    {
                      OFFSET -0.1983118991198174 -0.002467117924596085 -0.004538141969590015
                      CHANNELS 3 Yrotation Xrotation Zrotation
                      End Site
                      {
                        OFFSET -0.1983118991198174 -0.002467117924596085 -0.004538141969590015
                      }
                    }
                  }
                }
                JOINT rightThumbProximal
                {
                  OFFSET -0.09767004258864787 -0.14930060425447422 -0.07008212897521154
                  CHANNELS 3 Yrotation Xrotation Zrotation
                  JOINT rightThumbIntermediate
                  {
                    OFFSET -0.36682123028154767 -0.015768465060082004 0.28693641268151077
                    CHANNELS 3 Yrotation Xrotation Zrotation
                    JOINT rightThumbDistal
                    {
                      OFFSET -0.21091084272403915 -0.016756648201192714 0.1933767059105508
                      CHANNELS 3 Yrotation Xrotation Zrotation
                      End Site
                      {
                        OFFSET -0.21091084272403915 -0.016756648201192714 0.1933767059105508
                      }
                    }
                  }
                }
              }
            }
          }
        }
      }
    }
  }
  JOINT leftUpperLeg
  {
    OFFSET 0.7715603 -0.3993844658041501 0
    CHANNELS 3 Yrotation Xrotation Zrotation
    JOINT leftLowerLeg
    {
      OFFSET 0 -3.529830000249343 0
      CHANNELS 3 Yrotation Xrotation Zrotation
      JOINT leftFoot
      {
        OFFSET 0 -4.154939295409685 0.004208579085223096
        CHANNELS 3 Yrotation Xrotation Zrotation
        JOINT leftToes
        {
          OFFSET 0 -0.6353414391261847 1.10414981190622
          CHANNELS 3 Yrotation Xrotation Zrotation
          End Site
          {
            OFFSET 0 -0.6015820691747853 1.10414981190622
          }
        }
      }
    }
  }
  JOINT rightUpperLeg
  {
    OFFSET -0.7715603 -0.3993844658041501 0
    CHANNELS 3 Yrotation Xrotation Zrotation
    JOINT rightLowerLeg
    {
      OFFSET 0 -3.529830000249343 0
      CHANNELS 3 Yrotation Xrotation Zrotation
      JOINT rightFoot
      {
        OFFSET 0 -4.154939295409685 0.004208579085223096
        CHANNELS 3 Yrotation Xrotation Zrotation
        JOINT rightToes
        {
          OFFSET 0 -0.6353414391261847 1.10414981190622
          CHANNELS 3 Yrotation Xrotation Zrotation
          End Site
          {
            OFFSET 0 -0.6015820691747853 1.10414981190622
          }
        }
      }
    }
  }
}
MOTION
Frames: 4
Frame Time: 0.03333333333333333
0.0413948500698263 8.78502759066495 1.349056521307738 1.5778487132978567 -0.8929679642499704 -5.381774901068725 -1.1978160218305693 1.2977133838035444 2.9877037006718368 1.1154039275806822 1.354562937229626 11.820366641591074 0 0 0 -0.30474509748954176 1.0452950668178336 -2.169547648374886 0.5443851869588703 1.5848982064808925 -8.125453947368996 0 0 0 0 0 0 -13.789968707298078 3.4793621921368323 -5.897854694442714 3.5230155653096937 4.025236480964837 -83.43061485140018 -14.506748610278349 -0.000016463428762569724 0.000032189169137647694 4.171883131787129 -27.530155461200053 -11.347211244381914 4.6663823473609485 0.33773864201123793 -7.8165360626020615 2.8352009815703334 0.389009129118492 -20.54711716712518 0.8092491140261098 0.03452089539667472 -10.169332044968305 16.293313029395613 5.494328276675759 -35.378883416062 3.991807921785409 1.5251548418809522 -45.543749098981806 2.832979851110139 0.5568619236153117 -20.498773743678385 8.766893830169078 0.9009244553758415 -15.692661677469582 3.994246507183008 0.9161734892260548 -33.33648349875054 1.491262926566942 0.17075266081169616 -12.259965127664296 11.684963598964504 2.5032371501881445 -26.39163421610205 3.888333602482178 1.7071448125425053 -40.09945889513481 1.8351229815943761 0.544814834148579 -19.326696417508963 0.21222529586384117 18.639546399065722 11.135319455329036 31.896628334663173 0.8128141179300236 -2.731576329495038 8.678228065372151 1.797335887650677 -0.18776642025136953 3.334684862422022 4.5005234532809855 5.73355912989599 0.6560125893073486 -1.2196388173292219 67.33148966184761 17.736789619602405 -8.066857631924635e-7 -0.000012619314092801168 -9.297199248107118 -11.050101263224372 11.936411650882945 -4.690088574033769 0.34099064283261665 7.81660152581148 -2.795133840549582 0.3829019743447938 20.547206310595282 -0.2265467996423668 -0.19320854190347594 13.844672799216315 -16.052851497024598 5.324150949306192 35.40037272346254 -4.028963970907246 1.2635465395277226 45.55007775665042 -0.3119484683909041 -0.7652584705438097 22.124682641193857 -8.825805438779934 0.9174702172396324 15.69179162920516 -3.9009986867214543 0.8949635295200378 33.336942166118725 -1.7259513505498838 0.21556458713055276 15.891667692377304 -11.668417835377694 2.4950055598321774 26.392372150588677 -3.9123754041682104 1.7116431065484112 40.09928461845138 0.023233392161712142 -0.1516816832094637 17.815317268481138 -0.32285842772486395 18.662911836163705 -11.194167081320623 -31.782244440343078 0.7795762750322174 2.7762316289999336 -7.715263228000712 1.639310142277846 1.0072266237640892 11.445712142628379 -19.24831552465968 12.124535554223094 10.237786441298402 21.82972647589032 6.186233008085033 3.3559178802406042 -1.5259074966767772 -8.88371141763282 0.00000774666359170239 -0.44197226397234274 7.201351806508113e-7 -4.972490218022121 -1.6177452481080106 10.6900288992299 -5.2018711508288895 12.433419877027333 2.1458547432784556 1.0263095594382983 -9.860502946498444 -7.930806804837587 0.0000035039028562928394 -0.5389705455138586 0.0000034654369007546275
0.03737654536962509 8.785207921808414 1.3459082175172121 1.6248507315625675 -1.0323368151982235 -5.382734438372683 -1.2318512181928318 1.3100222238941177 2.982809241627254 1.0857127547171728 1.3659864462520117 11.814861397145783 0 0 0 -0.3732884945124073 1.0306228002999211 -2.1661385654003706 0.2884924610906531 1.8901541416297434 -8.05721732290153 0 0 0 0 0 0 -13.713342725274561 3.6316894759956035 -6.005928780579868 2.0950581119669502 3.9788047591331996 -83.31544193064637 -14.539471082661475 -0.00001439235577441641 0.000011603513525745136 5.201003366651557 -27.73865776376134 -11.306946467799223 4.66638192188174 0.3377476868329465 -7.816531833323965 2.8352024738797668 0.3890127844211651 -20.547111171606186 0.8092451657162372 0.03451784715740011 -10.169329523884565 16.293311382862054 5.4943312786756735 -35.378868253984784 3.9918119936267025 1.5251679733027927 -45.54375393014888 2.832984114962648 0.5568661393217986 -20.498787735660734 8.766896038550454 0.90093854438273 -15.69265417723415 3.994249914418145 0.9161723151371944 -33.3364389707506 1.491259725985902 0.17075168697180632 -12.259988379125852 11.684961088328594 2.5032414231338174 -26.39160669204774 3.8883438287213163 1.7071602940613322 -40.09947333759937 1.8351234082815508 0.5448198502955249 -19.326707216166643 0.21223735974265046 18.639562617690864 11.135327920014637 31.896633039057658 0.8128152386207024 -2.731565668377834 8.678218261272395 1.7973260644209372 -0.18776371086968144 3.401127025157935 4.737822543509305 5.784848906239406 0.9610727275987967 -1.107618098140507 67.23266982848338 17.724305548524264 0.000004468907106060314 -0.000023174749663026587 -9.067902657334786 -10.826559367601094 11.6735834812475 -4.583990815656717 0.3122995397828441 7.700523566855295 -2.7799613871344167 0.37727278742933673 20.387150884764356 -0.21275979535064526 -0.19369091342282355 13.712696337657292 -16.087517967270482 5.337476653996506 35.242167033570986 -4.01938420975703 1.2557668882657644 45.42818488801942 -0.2982988503992296 -0.7645310439377807 22.00463735724231 -8.782298207272323 0.9023802129742677 15.594060647970082 -3.890885411000989 0.888716724861394 33.21820622517373 -1.71275089856689 0.21180007284030788 15.754618354914026 -11.675972508724 2.4873132601086723 26.255418741529297 -3.9056777832493754 1.704774006250823 40.00367454487492 0.03323062023049804 -0.15261040544800994 17.717657034888383 -0.319736929375812 18.852084364381483 -11.030863864710463 -31.60215108594347 0.7236347182786413 2.8044271190727565 -7.567797456580911 1.6040450908724926 1.0426002277376678 11.447142035023854 -19.122654898974723 12.162093709543957 10.142176728696837 21.79614392466979 6.165018788099896 3.3908574458381358 -1.4782455321086863 -8.897965044063557 0.000024662264193178377 -0.3981614517099845 0.000003294801983549073 -4.942679836147765 -1.4777857287432232 10.70176830402399 -5.186874327316452 12.39725175315105 2.181777508850341 0.951847076979706 -9.838034287766382 -7.974456247516909 0.0000035039028562928394 -0.5389705455138586 0.0000034654369007546275
0.03308639946309003 8.78534663807262 1.3425515548536655 1.6831668658481842 -1.196460754550105 -5.386582385757753 -1.2719420921246676 1.3221168769451517 2.9865020673142015 1.050922182561768 1.3774134256666724 11.813399053128986 0 0 0 -0.5284692753558827 0.9963267900620651 -2.158071199272096 -0.29146493838864257 2.5541864012312128 -7.897407387390576 0 0 0 0 0 0 -13.568766597554472 3.9357859782618267 -6.166562463815626 0.6576083845889966 3.953629003824835 -83.10235036341649 -14.597435927690315 -0.000009002348633496171 0.000001635624518935942 6.165815053820232 -27.371947444588834 -11.178194978842946 4.666380219964903 0.3377517690091186 -7.816541137735666 2.835198423325581 0.3890128377832479 -20.547089586828065 0.8092386563404842 0.034517877172885306 -10.169321357671611 16.293314675929143 5.494331707532805 -35.37886347026572 3.991807733605393 1.5251650907955527 -45.543749098981806 2.832972602560802 0.5568667263189047 -20.498780141679802 8.766888766751139 0.9009403588760455 -15.692647600817475 3.994254173462027 0.9161783990522022 -33.336480645219 1.4912511911030846 0.17074875211186463 -12.259970967808684 11.684961925207235 2.503245268784935 -26.391625041417516 3.8883374373218844 1.7071464140789299 -40.09944403990519 1.835125755061007 0.5448189964832785 -19.326708827561017 0.21222775888505194 18.639557211482312 11.135295585393429 31.896645347563336 0.8128190276225236 -2.7315908286141304 8.678221310056204 1.7973533986255619 -0.1877933138675873 3.527270624343353 5.187139745865447 5.882403178988389 1.5632219284287738 -0.9043933412943979 67.04777630644534 17.679245904095477 -8.193852345912358e-7 0.000007849757956477628 -8.64693381186638 -10.402717160150948 11.173686575237019 -4.3868556229155224 0.24778522782835083 7.48768963406159 -2.7517608594639245 0.3669224046342366 20.090098951437874 -0.18698285363004494 -0.1944997885526362 13.465877371015068 -16.15264834719037 5.361395565124614 34.946052304496824 -4.001362949353364 1.2412271931088537 45.1995537798221 -0.27267377203457205 -0.7631145075860025 21.779403202142603 -8.70056662276724 0.8746043634704515 15.414869715810694 -3.871897959198118 0.8770236536510795 32.995644076605956 -1.6880606716210762 0.2048763096587191 15.49856225586941 -11.689601587759936 2.472751104231973 26.001465371402368 -3.89300706327533 1.6918385626147336 39.82317534213097 0.052083073892292206 -0.154297534925158 17.533258889218605 -0.30344642804936195 19.20300234988569 -10.721099483146888 -31.263817710943865 0.6180400515757076 2.857629525368535 -7.294027362584065 1.5382916418707693 1.1081252146913347 11.430944138260395 -18.973296843195378 12.197628509903057 10.018220571358459 21.763512440974523 6.156731551662027 3.461962578081212 -1.4268892699896731 -8.926001924041161 0.000001789758857142314 -0.3347340007296834 7.526488579533677e-7 -4.900152575597819 -1.315078744406609 10.71791193470138 -5.1930688349006155 12.361232863123355 2.213677085295221 0.8758201312132734 -9.81728534594419 -8.018185818777036 0.0000035039028562928394 -0.5389705455138586 0.0000034654369007546275
0.02843288535421545 8.785374381325461 1.33929489252824 1.7531539562878056 -1.3803533927808915 -5.392556002992272 -1.3184863446875863 1.337893421511684 2.9964876638091478 1.0106087771937382 1.3924607794056167 11.814838365091084 0 0 0 -0.7801618113629538 0.9391484545341204 -2.144325951288324 -1.232059258952883 3.5919587505597446 -7.627655534045584 0 0 0 0 0 0 -13.338893069164326 4.435063786072629 -6.396124171881552 -0.7982887816506662 3.9576530337255376 -82.76407475030226 -14.691460379496252 -0.000022313128545155716 -0.000023846275999363963 7.040829910884151 -26.27010343145411 -10.927552812775286 4.666378518048059 0.33775099526330804 -7.816540291880075 2.835200342009146 0.38902631170917323 -20.547114369519495 0.8092396167401867 0.034506998227028594 -10.169321357671611 16.293309736328467 5.49433685381841 -35.3788854024621 3.9918119936267025 1.5251559094762208 -45.54373943664765 2.832984114962648 0.5568755312755019 -20.498786136160486 8.766890454557133 0.9009351288659035 -15.69265417723415 3.9942448035654285 0.9161782923168511 -33.3364389707506 1.4912602594160762 0.17076027810727457 -12.259977533143983 11.684962762085872 2.5032311680642256 -26.391640328702564 3.8883463852810616 1.7071703303563626 -40.09947333759937 1.8351142345072535 0.5448011731526625 -19.32669206442941 0.2122299403351287 18.639564419760422 11.135295397376153 31.896608422046793 0.8128086212090796 -2.7315754766056686 8.678212350371002 1.7973371689415165 -0.18778375762481167 3.7325215174587236 5.912740305401104 6.041780422011638 2.5529014286614826 -0.5801900358436138 66.73482721764307 17.626852196942778 0.00001982761330290089 -0.000019013824470548317 -7.988959650369966 -9.712938154581366 10.363455553497863 -4.070483908365403 0.1496513490979061 7.153811272426771 -2.7067799693615657 0.35078573948694397 19.617479411456458 -0.14575816348416648 -0.19558065891107274 13.071155753532047 -16.257423689759655 5.3979889793431415 34.47207653462957 -3.97237742992465 1.2181018904517629 44.83326108743585 -0.23163267021247588 -0.760631834503439 21.41849195132223 -8.569246692620053 0.8312048542551389 15.1330862899806 -3.8413843756078054 0.858466249246004 32.63911445976591 -1.6485574590498118 0.19403968195378318 15.089447123340271 -11.710711888051335 2.4489962103440583 25.598338279986447 -3.8725001413682567 1.6710773737740858 39.53224098433359 0.08248961818070562 -0.15689860595079486 17.23601008720308 -0.2600944720227474 19.75964579221428 -10.218175608588222 -30.72099179618273 0.447501281906901 2.9430805834995253 -6.8590674212212726 1.4331220512153036 1.2114964186390158 11.396053559234609 -18.805147424586885 12.229334609712806 9.86554756774017 21.735868094045873 6.164128493631958 3.5708688525600403 -1.3749450944225774 -8.971008472201314 2.7373514805648576e-7 -0.2519078197978065 0.000003339066686000888 -4.845166687083339 -1.1345213868078834 10.740393330389448 -5.208116302555434 12.328262801570157 2.2417102773810904 0.7853404642896058 -9.802056765572466 -8.06152590648844 0.0000035039028562928394 -0.5389705455138586 0.0000034654369007546275
